<svg width="32" height="36" viewBox="0 0 32 36" fill="none" xmlns="http://www.w3.org/2000/svg">
<path d="M8 8.18182C8 3.66312 11.5817 0 16 0C20.4183 0 24 3.66312 24 8.18182C24 12.7005 20.4183 16.3636 16 16.3636C11.5817 16.3636 8 12.7005 8 8.18182Z" fill="#C4C4C4"/>
<path d="M16 18C7.16346 18 0 25.3263 0 34.3636C0 35.2674 0.716344 36 1.6 36C2.48366 36 3.2 35.2674 3.2 34.3636C3.2 27.9101 7.76606 22.5473 13.7744 21.4699L11.2708 29.7915C11.115 30.3091 11.2198 30.872 11.5506 31.295L14.7506 35.3859C15.0543 35.774 15.514 36 16 36C16.4861 36 16.9458 35.774 17.2494 35.3859L20.4494 31.295C20.7802 30.872 20.885 30.3091 20.7293 29.7915L18.2257 21.4699C24.234 22.5473 28.8 27.9101 28.8 34.3636C28.8 35.2674 29.5163 36 30.4 36C31.2837 36 32 35.2674 32 34.3636C32 25.3277 24.8388 18.0023 16.0041 18" fill="#C4C4C4"/>
<path d="M16 18C16 18 16 18 16 18V18Z" fill="#C4C4C4"/>
</svg>
