<svg width="40" height="40" viewBox="0 0 40 40" fill="none" xmlns="http://www.w3.org/2000/svg">
<circle cx="20" cy="20.0002" r="20" fill="white"/>
<g clip-path="url(#clip0_1_714)">
<path fill-rule="evenodd" clip-rule="evenodd" d="M31.9279 15.2107C31.8694 13.9741 31.6666 13.1297 31.3699 12.3908C31.0687 11.6157 30.5963 10.9135 29.9858 10.3332C29.3865 9.74219 28.6611 9.28468 27.8604 8.9929C27.097 8.70592 26.2249 8.50969 24.9475 8.4535C23.6678 8.39677 23.2589 8.3833 20 8.3833C16.7411 8.3833 16.3322 8.39677 15.0525 8.45314C13.7751 8.50969 12.903 8.70609 12.1396 8.99326C11.3389 9.28485 10.6136 9.74219 10.0142 10.3332C9.40369 10.9134 8.93109 11.6155 8.6297 12.3907C8.33325 13.1297 8.13055 13.9741 8.07251 15.2105C8.01392 16.4496 8 16.8452 8 20.0001C8 23.1552 8.01392 23.5511 8.07251 24.7899C8.13074 26.0263 8.33362 26.8708 8.63025 27.6098C8.93146 28.3848 9.40387 29.0871 10.0143 29.6673C10.6136 30.2583 11.3391 30.7156 12.1398 31.0072C12.903 31.2945 13.7753 31.4908 15.0527 31.5473C16.3326 31.6039 16.7413 31.6172 20.0002 31.6172C23.2591 31.6172 23.668 31.6039 24.9477 31.5473C26.225 31.4908 27.0972 31.2945 27.8605 31.0072C29.4724 30.4038 30.7466 29.1702 31.3699 27.6098C31.6667 26.8708 31.8694 26.0263 31.9279 24.7899C31.9861 23.5509 32 23.1552 32 20.0003C32 16.8452 31.9861 16.4496 31.9279 15.2107ZM29.7678 24.6947C29.7145 25.8274 29.5189 26.4425 29.3547 26.8518C28.9509 27.8651 28.1238 28.6658 27.0772 29.0566C26.6544 29.2156 26.019 29.4049 24.849 29.4565C23.5839 29.5125 23.2043 29.5242 20 29.5242C16.7955 29.5242 16.4161 29.5125 15.1508 29.4565C13.981 29.4049 13.3456 29.2156 12.9226 29.0566C12.4015 28.8703 11.93 28.5734 11.5429 28.1875C11.1443 27.8128 10.8376 27.3565 10.6451 26.8518C10.4809 26.4425 10.2853 25.8274 10.2321 24.6947C10.1744 23.4699 10.1621 23.1024 10.1621 20.0005C10.1621 16.8984 10.1744 16.5311 10.2321 15.3061C10.2855 14.1734 10.4809 13.5583 10.6451 13.149C10.8376 12.6443 11.1445 12.1879 11.5429 11.8131C11.93 11.4272 12.4015 11.1303 12.9228 10.9442C13.3456 10.785 13.981 10.5959 15.151 10.5441C16.4163 10.4883 16.7958 10.4764 20 10.4764C23.204 10.4764 23.5836 10.4883 24.849 10.5443C26.019 10.5959 26.6542 10.7852 27.0772 10.9442C27.5983 11.1305 28.0698 11.4274 28.4569 11.8131C28.8555 12.1879 29.1622 12.6443 29.3545 13.149C29.5189 13.5583 29.7145 14.1734 29.7678 15.3061C29.8254 16.531 29.8377 16.8984 29.8377 20.0003C29.8377 23.1024 29.8256 23.4697 29.7678 24.6947ZM19.9998 14.0348C16.5966 14.0348 13.8378 16.7057 13.8378 20.0003C13.8378 23.2949 16.5966 25.9657 19.9998 25.9657C23.4032 25.9657 26.162 23.2949 26.162 20.0003C26.162 16.7057 23.4032 14.0348 19.9998 14.0348ZM19.9998 23.8726C17.7908 23.8724 15.9999 22.1388 16.0001 20.0001C16.0001 17.8617 17.7908 16.1279 20 16.1279C22.2092 16.128 23.9999 17.8617 23.9999 20.0001C23.9999 22.1388 22.209 23.8726 19.9998 23.8726ZM26.4056 15.1932C27.2008 15.1932 27.8455 14.569 27.8455 13.7992C27.8455 13.0292 27.2008 12.405 26.4056 12.405C25.6102 12.405 24.9654 13.0292 24.9654 13.7992C24.9654 14.569 25.6102 15.1932 26.4056 15.1932Z" fill="#1E1D1C"/>
</g>
<defs>
<clipPath id="clip0_1_714">
<rect width="24" height="24" fill="white" transform="translate(8 8.00024)"/>
</clipPath>
</defs>
</svg>
