<svg width="11" height="10" viewBox="0 0 11 10" fill="none" xmlns="http://www.w3.org/2000/svg">
<path fill-rule="evenodd" clip-rule="evenodd" d="M0.5 0C0.223858 0 0 0.23564 0 0.526316V7.36842C0 7.6591 0.223858 7.89474 0.5 7.89474H5V8.94737H2.5C2.22386 8.94737 2 9.18301 2 9.47368C2 9.76436 2.22386 10 2.5 10H8.5C8.77614 10 9 9.76436 9 9.47368C9 9.18301 8.77614 8.94737 8.5 8.94737H6V7.89474H10.5C10.7761 7.89474 11 7.6591 11 7.36842V0.526316C11 0.23564 10.7761 0 10.5 0H0.5ZM4 4.47368C4 4.18301 3.77614 3.94737 3.5 3.94737C3.22386 3.94737 3 4.18301 3 4.47368V5.52632C3 5.81699 3.22386 6.05263 3.5 6.05263C3.77614 6.05263 4 5.81699 4 5.52632V4.47368ZM5.5 2.89474C5.77614 2.89474 6 3.13038 6 3.42105V5.52632C6 5.81699 5.77614 6.05263 5.5 6.05263C5.22386 6.05263 5 5.81699 5 5.52632V3.42105C5 3.13038 5.22386 2.89474 5.5 2.89474ZM8 2.36842C8 2.07774 7.77614 1.84211 7.5 1.84211C7.22386 1.84211 7 2.07774 7 2.36842V5.52632C7 5.81699 7.22386 6.05263 7.5 6.05263C7.77614 6.05263 8 5.81699 8 5.52632V2.36842Z" fill="#4D4D4D"/>
</svg>
