<svg width="13" height="13" viewBox="0 0 13 13" fill="none" xmlns="http://www.w3.org/2000/svg">
<path d="M6.93773 0.181315C6.69598 -0.0604383 6.30402 -0.0604383 6.06227 0.181315L3.8956 2.34798C3.65385 2.58974 3.65385 2.98169 3.8956 3.22345L6.06227 5.39011C6.30402 5.63187 6.69598 5.63187 6.93773 5.39011L9.1044 3.22345C9.34615 2.98169 9.34615 2.58974 9.1044 2.34798L6.93773 0.181315Z" fill="#4D4D4D"/>
<path d="M6.93773 7.60989C6.69598 7.36813 6.30402 7.36813 6.06227 7.60989L3.8956 9.77655C3.65385 10.0183 3.65385 10.4103 3.8956 10.652L6.06227 12.8187C6.30402 13.0604 6.69598 13.0604 6.93773 12.8187L9.1044 10.652C9.34615 10.4103 9.34615 10.0183 9.1044 9.77655L6.93773 7.60989Z" fill="#4D4D4D"/>
<path d="M10.652 3.8956C10.4103 3.65385 10.0183 3.65385 9.77655 3.8956L7.60989 6.06227C7.36813 6.30402 7.36813 6.69598 7.60989 6.93773L9.77655 9.1044C10.0183 9.34615 10.4103 9.34615 10.652 9.1044L12.8187 6.93773C13.0604 6.69598 13.0604 6.30402 12.8187 6.06227L10.652 3.8956Z" fill="#4D4D4D"/>
<path d="M3.22345 3.8956C2.98169 3.65385 2.58974 3.65385 2.34798 3.8956L0.181315 6.06227C-0.0604383 6.30402 -0.0604383 6.69598 0.181315 6.93773L2.34798 9.1044C2.58974 9.34615 2.98169 9.34615 3.22345 9.1044L5.39011 6.93773C5.63187 6.69598 5.63187 6.30402 5.39011 6.06227L3.22345 3.8956Z" fill="#4D4D4D"/>
</svg>
