<svg width="37" height="37" viewBox="0 0 37 37" fill="none" xmlns="http://www.w3.org/2000/svg">
<path d="M22.7045 16.8182H14.2955V23.5455H22.7045V16.8182Z" fill="#C4C4C4"/>
<path fill-rule="evenodd" clip-rule="evenodd" d="M14.2955 1.68182C14.2955 0.752976 13.5425 0 12.6136 0C11.6848 0 10.9318 0.752976 10.9318 1.68182V3.36364H3.36364C1.50595 3.36364 0 4.86959 0 6.72727V33.6364C0 35.494 1.50595 37 3.36364 37H33.6364C35.494 37 37 35.494 37 33.6364V6.72727C37 4.86959 35.494 3.36364 33.6364 3.36364H26.0682V1.68182C26.0682 0.752976 25.3152 0 24.3864 0C23.4575 0 22.7045 0.752976 22.7045 1.68182V3.36364H14.2955V1.68182ZM10.9318 26.9091H3.36364V23.5455H10.9318V16.8182H3.36364V13.4545H33.6364V16.8182H26.0682V23.5455H33.6364V26.9091H26.0682V33.6364H22.7045V26.9091H14.2955V33.6364H10.9318V26.9091Z" fill="#C4C4C4"/>
</svg>
