<svg width="128" height="36" viewBox="0 0 128 36" fill="none" xmlns="http://www.w3.org/2000/svg">
<path d="M128 0.933594H94.5221V34.9261H128V0.933594Z" fill="#AA182C"/>
<path d="M17.5157 27.5112C17.5157 27.476 17.5041 27.7702 17.4577 28.3587C17.3766 29.5711 17.3302 30.7598 17.3302 31.8781C17.3302 32.0076 17.3534 32.2664 17.3882 32.6667C17.4346 33.055 17.4577 33.5142 17.4577 34.0673V34.3498C17.4577 34.6205 17.3766 34.75 17.2143 34.75C17.052 34.75 16.9013 34.5969 16.7738 34.2792C16.4724 33.5847 16.1826 33.1375 15.9159 32.9139C14.4206 34.232 12.6238 34.903 10.5372 34.903C7.5001 34.903 4.98461 33.8201 2.97917 31.6779C0.996921 29.5476 0 26.8286 0 23.5564C0 20.2608 0.904184 17.5536 2.73574 15.4585C4.56729 13.3752 6.92049 12.3276 9.81852 12.3276C10.8734 12.3276 11.7196 12.4218 12.3455 12.5984C12.9831 12.7749 13.7598 13.1398 14.6872 13.6812C15.1393 13.9519 15.487 14.0932 15.7189 14.0932C15.9044 14.0932 16.0898 13.9284 16.2406 13.5988C16.5187 13.0103 16.7159 12.7043 16.9013 12.7043C17.0635 12.7043 17.1447 12.7867 17.1447 12.9515C17.1447 13.0456 17.1215 13.1751 17.0752 13.3752C16.8434 14.3756 16.739 16.2707 16.739 19.0367C16.739 19.4369 16.7042 19.6723 16.6346 19.7311C16.5767 19.8018 16.484 19.8254 16.3912 19.8254C16.1826 19.8254 16.0551 19.6134 15.9855 19.2251C15.7073 17.5419 15.3247 16.2942 14.8263 15.4703C13.8178 13.7872 12.2297 12.9515 10.062 12.9515C8.39268 12.9515 7.05959 13.5282 6.09745 14.6699C4.34704 16.7061 3.47763 19.6841 3.47763 23.6036C3.47763 27.1111 4.19634 29.8418 5.64535 31.7722C6.8973 33.4552 8.57816 34.3027 10.6647 34.3027C11.7312 34.3027 12.705 34.0202 13.6092 33.4906C14.5018 32.9609 15.1857 32.2429 15.6494 31.313C16.1826 30.242 16.5651 29.0767 16.797 27.8173C16.8781 27.3112 17.0172 27.0522 17.2027 27.0522C17.3997 27.0404 17.5157 27.2053 17.5157 27.5112Z" fill="#2C2926"/>
<path d="M32.1912 33.1137C32.1912 33.4786 31.8434 33.8551 31.1015 34.2318C30.3712 34.6203 29.6641 34.8203 28.9918 34.8203C27.5659 34.8321 26.8241 34.0671 26.7777 32.5723C25.9894 34.1377 24.7839 34.9145 23.1262 34.9145C22.2451 34.9145 21.5264 34.632 20.9352 34.1023C20.3673 33.5727 20.0774 32.89 20.0774 32.0543C20.0774 30.3241 21.086 28.947 23.1146 27.9465C23.7985 27.6051 25.0157 27.2638 26.7313 26.9343V26.1575C26.7313 24.3095 26.6386 23.0854 26.4531 22.4968C26.1285 21.4258 25.3751 20.8843 24.2274 20.8843C23.4971 20.8843 22.8943 21.0845 22.419 21.4846C21.9322 21.8849 21.6887 22.3909 21.6887 23.003C21.6887 23.1678 21.8278 23.2502 22.0828 23.2502C22.3495 23.2502 22.5813 23.3679 22.79 23.6269C22.9871 23.8857 23.103 24.1683 23.103 24.486C23.103 25.4159 22.6509 25.8749 21.7351 25.8749C21.2483 25.8749 20.8541 25.7102 20.5527 25.3923C20.2398 25.0628 20.089 24.6509 20.089 24.1447C20.089 23.1561 20.4716 22.2968 21.2366 21.5906C22.0829 20.8138 23.2652 20.4253 24.7723 20.4253C27.0442 20.4253 28.4354 21.0609 28.9569 22.3086C29.1425 22.8029 29.2352 23.7446 29.2352 25.1805V31.0657C29.2352 32.019 29.2468 32.5957 29.2584 32.7606C29.3744 33.5138 29.6756 33.9022 30.1626 33.9022C30.7538 33.9022 31.2174 33.6904 31.5884 33.2667C31.7971 33.0313 31.9594 32.9253 32.0521 32.9253C32.1564 32.9253 32.1912 32.996 32.1912 33.1137ZM26.7313 29.7827V27.4874C25.2128 27.8523 24.0999 28.3231 23.4624 28.8881C22.79 29.4766 22.4538 30.2418 22.4538 31.2186C22.4538 31.8778 22.6509 32.4192 23.0218 32.8665C23.4044 33.3019 23.868 33.5256 24.4477 33.5256C25.3171 33.5256 26.0241 33.0077 26.5574 32.0072C26.6733 31.7601 26.7313 31.0186 26.7313 29.7827Z" fill="#2C2926"/>
<path d="M41.6504 30.5351C41.6504 31.7593 41.2099 32.7833 40.3289 33.6306C39.4595 34.4781 38.4162 34.9136 37.2106 34.9136C36.5035 34.9136 35.6573 34.6665 34.6488 34.1604C34.3822 34.0191 34.1388 33.9367 33.9301 33.9367C33.6518 33.9367 33.4316 34.1368 33.2925 34.537C33.2113 34.7841 33.0954 34.9136 32.9448 34.9136C32.8056 34.9136 32.7476 34.8312 32.7476 34.6665C32.7476 34.5605 32.7476 34.4428 32.7476 34.2898C32.7476 33.866 32.7476 33.2423 32.7476 32.4184C32.7476 32.3595 32.7476 32.1006 32.7476 31.6768C32.7476 31.2295 32.7476 30.9353 32.7476 30.7941V30.441C32.7476 30.2173 32.8056 30.0996 32.9448 30.0996C33.1187 30.0996 33.2113 30.2055 33.2229 30.441C33.3504 31.4061 33.6171 32.1712 34.046 32.7126C34.869 33.8072 35.9703 34.3369 37.373 34.3369C38.1148 34.3369 38.7176 34.1132 39.1697 33.6895C39.6218 33.2423 39.8536 32.642 39.8536 31.924C39.8536 31.1 39.587 30.4527 39.0654 29.9584C38.7871 29.6876 38.5205 29.4875 38.2771 29.3816C38.0453 29.2639 37.3497 28.9932 36.179 28.5459C33.8837 27.6632 32.7245 26.3331 32.7245 24.5793C32.7245 23.4024 33.1187 22.4136 33.8952 21.6133C34.6719 20.8129 35.634 20.4244 36.7817 20.4244C37.1991 20.4244 37.8134 20.5421 38.6365 20.8011C38.8335 20.8717 39.019 20.8952 39.1813 20.8952C39.6218 20.8952 39.8769 20.6834 39.9928 20.2715C40.0623 20.0595 40.1434 19.9536 40.2594 19.9536C40.41 19.9536 40.4796 20.0361 40.4796 20.2008C40.4796 20.2244 40.4796 20.2832 40.4796 20.3774V21.7074C40.4681 22.2018 40.5144 23.0139 40.6303 24.1203V24.191C40.6303 24.3557 40.5492 24.4382 40.3869 24.4382C40.2594 24.4382 40.1086 24.1203 39.9231 23.4965C39.6913 22.7432 39.2972 22.1312 38.7292 21.6722C38.1496 21.213 37.5004 20.9776 36.7585 20.9776C36.0398 20.9776 35.4834 21.2013 35.0197 21.6486C34.5677 22.0959 34.3358 22.649 34.3358 23.3199C34.3358 24.3557 35.0314 25.1678 36.4108 25.7093C38.5669 26.5685 39.9347 27.2865 40.5259 27.8515C41.2679 28.5813 41.6504 29.4758 41.6504 30.5351Z" fill="#2C2926"/>
<path d="M51.8513 32.6775C51.8513 32.8657 51.5848 33.1953 51.0747 33.6897C50.1822 34.5018 49.1272 34.9137 47.91 34.9137C46.7624 34.9137 45.9046 34.6195 45.325 34.031C45.0005 33.7015 44.8381 32.7127 44.8381 31.0884V21.7429C44.8033 21.531 44.6991 21.4251 44.4904 21.3898H43.3196C42.8675 21.3898 42.6356 21.3308 42.6356 21.1779C42.6356 21.0366 42.74 20.9425 42.9718 20.9189C44.5716 20.7659 45.8235 19.9655 46.7277 18.4707C46.8552 18.2824 47.0058 18.1765 47.1913 18.1765C47.3305 18.1765 47.4116 18.2471 47.4116 18.4001V18.5296C47.4116 18.6238 47.4116 18.812 47.4116 19.071C47.4116 19.9537 47.4464 20.5187 47.5391 20.7659C47.7245 20.813 48.0259 20.8366 48.4665 20.8366C49.6025 20.8366 50.3559 20.7777 50.727 20.6835C50.8081 20.6718 50.8776 20.66 50.9472 20.66C51.1095 20.66 51.1906 20.7541 51.1906 20.9307C51.1906 21.2485 50.3444 21.4015 48.6751 21.4015C48.3853 21.4015 47.9564 21.4015 47.4 21.4015V27.2161C47.4116 30.1468 47.4811 31.9712 47.6203 32.7245C47.7709 33.4778 48.2462 33.8427 49.046 33.8427C49.73 33.8427 50.4834 33.4543 51.3298 32.6775C51.4109 32.5598 51.5152 32.5244 51.6079 32.5244C51.7818 32.5126 51.8513 32.5598 51.8513 32.6775Z" fill="#2C2926"/>
<path d="M58.7487 34.3259C58.7487 34.5261 58.5748 34.6203 58.227 34.6203C58.2387 34.6203 57.9953 34.6085 57.4736 34.5613C56.8593 34.5261 56.3376 34.4908 55.9318 34.4908H52.6976C52.5933 34.5731 52.4658 34.6203 52.3267 34.6203C52.0949 34.6203 51.9905 34.5496 51.9905 34.3849C51.9905 34.1612 52.1876 34.0553 52.6049 34.0553C53.3815 34.02 53.8104 33.9728 53.8916 33.8669C53.9612 33.7728 53.996 33.3373 53.996 32.5605V23.0266C53.9843 22.5086 53.9496 22.1909 53.9148 22.0967C53.8916 21.9908 53.7641 21.9554 53.5323 21.9554H52.6281C52.5469 21.9554 52.4427 21.9554 52.3152 21.9554C52.0833 21.9554 51.9789 21.8849 51.9789 21.7318C51.9789 21.6023 52.1528 21.52 52.5006 21.5082C53.8685 21.4493 55.0277 21.108 56.0129 20.496L56.3143 20.2958C56.4767 20.6137 56.5579 21.2022 56.5579 22.026C56.5462 21.979 56.5462 22.0967 56.5579 22.3321C56.5579 22.5911 56.5579 23.003 56.5579 23.568V32.1603C56.5579 33.0077 56.5926 33.502 56.6157 33.6551C56.639 33.7963 56.7549 33.8905 56.9404 33.9258C57.2649 34.0082 57.717 34.0553 58.2967 34.0553C58.5981 34.0789 58.7487 34.173 58.7487 34.3259ZM56.5579 17.8594C56.5579 19.0364 55.9898 19.6131 54.8422 19.6131C54.3669 19.6131 53.9612 19.4484 53.625 19.1305C53.3004 18.8128 53.1381 18.4127 53.1381 17.9536C53.1381 16.7412 53.7062 16.1292 54.8422 16.1292C55.9898 16.1292 56.5579 16.7059 56.5579 17.8594Z" fill="#2C2926"/>
<path d="M66.0635 34.3025C66.0635 34.4908 65.9243 34.5849 65.6693 34.5849H65.2984C65.252 34.5849 64.7072 34.5613 63.6524 34.5261H62.6901C62.5279 34.5261 61.6933 34.5379 60.221 34.5613C60.0935 34.5849 59.966 34.5849 59.8501 34.5849C59.5372 34.5967 59.3748 34.5143 59.3748 34.3143C59.3748 34.173 59.5023 34.1023 59.7226 34.1023H60.534C61.1021 34.1023 61.3919 33.9846 61.3919 33.7257C61.415 33.608 61.4266 32.7841 61.4266 31.2775L61.4035 15.2464C61.4035 14.552 61.3919 14.1753 61.3571 14.1047C61.2875 13.9399 61.1252 13.8575 60.8586 13.8575H60.6152H59.7342C59.4444 13.8575 59.3169 13.7634 59.3169 13.5986C59.3169 13.4337 59.5719 13.3396 60.082 13.316C61.0673 13.2454 61.9831 13.0218 62.8293 12.6216L63.4785 12.3156L63.7219 12.2214C63.8958 12.8335 63.9538 13.7516 63.9421 14.9874V17.2238V32.6428C63.9421 33.2901 63.9538 33.6668 63.9769 33.7727C64 33.8904 64.0696 33.9728 64.1972 34.0082C64.2088 34.0199 64.5913 34.0553 65.3448 34.0788C65.8316 34.0788 66.0635 34.1612 66.0635 34.3025Z" fill="#2C2926"/>
<path d="M73.3549 34.302C73.3549 34.4903 73.2159 34.5844 72.9376 34.5844H72.5783C72.532 34.5844 71.987 34.5609 70.9322 34.5257H69.9701C69.8078 34.5257 68.9847 34.5374 67.4893 34.5609C67.3734 34.5844 67.2459 34.5844 67.1184 34.5844C66.8055 34.5962 66.6547 34.5139 66.6547 34.3138C66.6547 34.1725 66.7706 34.1019 67.0025 34.1019H67.8023C68.3819 34.1019 68.6718 33.9841 68.6718 33.7253C68.6949 33.6076 68.6949 32.7837 68.6949 31.2653V15.2342C68.6949 14.5397 68.6833 14.1631 68.6369 14.0925C68.5674 13.9277 68.4168 13.8453 68.1501 13.8453H67.8951H67.0256C66.7359 13.8453 66.5852 13.7512 66.5852 13.5863C66.5852 13.4216 66.8517 13.3273 67.3503 13.3039C68.3588 13.2332 69.263 13.0096 70.1092 12.6095L70.7699 12.3034L71.0133 12.2092C71.1757 12.8213 71.2568 13.7394 71.2336 14.9752V17.2116V32.6424C71.2336 33.2897 71.2452 33.6664 71.2568 33.7723C71.28 33.89 71.338 33.9725 71.4771 34.0077C71.5002 34.0313 71.8711 34.0548 72.6131 34.0784C73.1231 34.0784 73.3549 34.1608 73.3549 34.302Z" fill="#2C2926"/>
<path d="M86.1292 31.0891C86.1292 31.3011 85.9786 31.6777 85.6539 32.1956C85.341 32.7488 85.0049 33.1725 84.6802 33.5138C83.7876 34.432 82.5937 34.9027 81.1215 34.9027C79.2551 34.9027 77.6902 34.22 76.4498 32.8547C75.198 31.4894 74.5719 29.7944 74.5719 27.7817C74.5719 25.6749 75.1631 23.9211 76.3456 22.5204C77.5396 21.1197 79.0234 20.4253 80.7969 20.4253C82.2691 20.4253 83.4978 20.8373 84.4832 21.7318C85.4802 22.6028 86.0133 23.7328 86.0597 25.0863C85.4105 25.204 84.5296 25.2394 83.4283 25.2276H81.2722C81.1215 25.2276 79.8811 25.2629 77.5396 25.3217C77.4352 26.0044 77.3888 26.6753 77.3888 27.2874C77.3888 29.406 77.7946 31.0303 78.5828 32.172C79.3826 33.3137 80.5071 33.8787 81.956 33.8787C82.7791 33.8787 83.4399 33.7022 83.9384 33.3137C84.4484 32.9371 84.9816 32.1956 85.5497 31.1363C85.6539 30.9714 85.7467 30.8891 85.8974 30.8891C86.0597 30.8655 86.1292 30.9362 86.1292 31.0891ZM83.4283 24.6626C83.3472 22.1321 82.4777 20.8843 80.7622 20.8843C79.0929 20.8843 78.0496 22.1437 77.6322 24.6626H83.4283Z" fill="#2C2926"/>
<path d="M88.2274 21.7074C87.7868 21.7074 87.4043 21.5545 87.0914 21.2366C86.7784 20.9306 86.6161 20.554 86.6161 20.0949C86.6161 19.6359 86.7784 19.2474 87.0914 18.9415C87.4043 18.6355 87.7868 18.4824 88.2274 18.4824C88.6679 18.4824 89.0388 18.6355 89.3519 18.9297C89.6648 19.2358 89.827 19.6241 89.827 20.0832C89.827 20.5422 89.6764 20.9306 89.3519 21.2248C89.0388 21.5545 88.6679 21.7074 88.2274 21.7074ZM86.9406 20.0949C86.9406 20.4834 87.0566 20.7894 87.3117 21.0484C87.5551 21.3073 87.868 21.4368 88.2274 21.4368C88.5868 21.4368 88.8881 21.3073 89.1431 21.0484C89.3866 20.7894 89.5141 20.4716 89.5141 20.0949C89.5141 19.7066 89.3866 19.3887 89.1431 19.1415C88.8881 18.8827 88.5868 18.7532 88.2274 18.7532C87.8565 18.7532 87.5551 18.8709 87.3117 19.1415C87.0566 19.3887 86.9406 19.7066 86.9406 20.0949ZM87.9028 20.2126V21.013H87.6246V19.1651H88.3201C88.7491 19.1651 88.9693 19.3417 88.9693 19.6948C88.9693 20.0008 88.8069 20.1656 88.494 20.2126L89.0156 21.0248H88.7143L88.2274 20.2244H87.9028V20.2126ZM87.9028 19.9772H88.2274C88.3665 19.9772 88.4708 19.9537 88.5404 19.9302C88.6331 19.8831 88.6679 19.8007 88.6679 19.6712C88.6679 19.4946 88.5404 19.4005 88.2738 19.4005H87.9028V19.9772Z" fill="#2C2926"/>
<path d="M114.182 23.4614C114.518 23.8145 118.379 33.5132 118.668 34.855L116.674 35.0551C115.782 34.1606 112.432 26.6747 112.258 26.5452C111.041 27.7458 109.059 34.443 108.746 35.0669L106.671 34.9374C106.763 33.8309 107.737 27.6163 109.638 23.9558C109.986 22.7434 109.928 17.7646 110.577 17.2349C110.114 17.0584 107.273 16.3875 106.416 15.799C106.682 15.1515 108.027 11.5264 108.375 11.0085C108.375 11.0085 109.175 11.3616 109.661 11.4911C109.661 11.4911 109.441 13.539 109.557 14.057C111.864 13.0918 114.774 13.3508 115.179 13.2448C115.179 13.2448 114.971 12.3856 114.715 12.1973L115.017 11.6558C114.669 11.3851 107.262 10.0786 106.845 9.96091C106.891 9.58427 110.032 4.39358 110.183 4.27588C110.566 4.51129 114.854 11.0791 115.215 11.1379C115.538 10.879 116.547 9.43125 116.547 9.43125C116.871 9.27824 117.985 10.1963 118.205 10.3964C118.588 10.7731 116.559 12.9035 116.42 13.5156C116.501 13.8569 118.588 13.0212 119.422 13.6803C119.503 13.7627 119.7 13.7862 119.549 14.2217C119.016 16.5758 114.762 22.8847 114.182 23.4614Z" fill="white"/>
<path d="M104.642 6.63077L104.885 5.92456L107.841 7.52531" fill="white"/>
<path d="M108.143 6.90095L104.688 3.59351L104.352 4.06432" fill="white"/>
<path d="M108.525 5.95933L107.065 3.59351L106.659 3.94662L108.525 5.95933Z" fill="white"/>
</svg>
