<svg width="44" height="44" viewBox="0 0 44 44" fill="none" xmlns="http://www.w3.org/2000/svg">
<mask id="mask0_1_629" style="mask-type:alpha" maskUnits="userSpaceOnUse" x="0" y="0" width="44" height="44">
<rect width="44" height="44" fill="#C4C4C4"/>
</mask>
<g mask="url(#mask0_1_629)">
<rect width="44" height="44" fill="#6E309F"/>
<path d="M26.2935 21.72C27.4335 21.12 28.1535 20.04 28.1535 18.64C28.1535 16.46 26.3535 15 22.8535 15H16.0135V29H23.2535C26.9335 29 28.8535 27.6 28.8535 25.18C28.8535 23.42 27.8535 22.22 26.2935 21.72ZM22.4535 17.44C24.0335 17.44 24.8935 17.98 24.8935 19.08C24.8935 20.18 24.0335 20.74 22.4535 20.74H19.2335V17.44H22.4535ZM23.0135 26.56H19.2335V23.1H23.0135C24.6935 23.1 25.5935 23.66 25.5935 24.84C25.5935 26.04 24.6935 26.56 23.0135 26.56Z" fill="white"/>
</g>
</svg>
