<svg width="31" height="36" viewBox="0 0 31 36" fill="none" xmlns="http://www.w3.org/2000/svg">
<path d="M25.4519 0.446484C24.7966 -0.173912 23.764 -0.144113 23.1454 0.513041C22.5268 1.1702 22.5565 2.20586 23.2118 2.82625C26.0001 5.46634 27.7368 9.20309 27.7368 13.3493C27.7368 21.3403 21.2779 27.8182 13.3103 27.8182C9.17619 27.8182 5.45039 26.0764 2.81798 23.2798C2.1994 22.6227 1.16676 22.5929 0.511535 23.2133C-0.143695 23.8337 -0.173401 24.8694 0.445185 25.5265C3.26256 28.5195 7.11132 30.5316 11.4211 30.9908V32.7273H8.15789C7.2568 32.7273 6.52632 33.4599 6.52632 34.3636C6.52632 35.2674 7.2568 36 8.15789 36H17.9474C18.8485 36 19.5789 35.2674 19.5789 34.3636C19.5789 33.4599 18.8485 32.7273 17.9474 32.7273H14.6842V31.0382C23.8119 30.335 31 22.684 31 13.3493C31 8.26559 28.866 3.67908 25.4519 0.446484Z" fill="#C4C4C4"/>
<path d="M1.12035e-09 13.0909C1.12035e-09 5.86099 5.84385 9.93119e-09 13.0526 9.93119e-09C20.2614 9.93119e-09 26.1053 5.86099 26.1053 13.0909C26.1053 20.3208 20.2614 26.1818 13.0526 26.1818C5.84385 26.1818 1.12035e-09 20.3208 1.12035e-09 13.0909Z" fill="#C4C4C4"/>
</svg>
