<svg width="40" height="40" viewBox="0 0 40 40" fill="none" xmlns="http://www.w3.org/2000/svg">
<circle cx="20" cy="20.0002" r="20" fill="white"/>
<path fill-rule="evenodd" clip-rule="evenodd" d="M13.7747 10.2841C13.7747 11.5292 12.8267 12.5368 11.3442 12.5368C9.91935 12.5368 8.97132 11.5292 9.00066 10.2841C8.97132 8.97853 9.91933 8.00024 11.3726 8.00024C12.8267 8.00024 13.7463 8.97853 13.7747 10.2841ZM9.11986 28.8193V14.3165H13.6271V28.8184H9.11986V28.8193Z" fill="#111111"/>
<path fill-rule="evenodd" clip-rule="evenodd" d="M17.2398 18.9449C17.2398 17.1359 17.1802 15.5937 17.1206 14.3184H21.0356L21.2437 16.3052H21.3326C21.9259 15.3856 23.4084 13.9929 25.8106 13.9929C28.7757 13.9929 31 15.9504 31 20.2193V28.8212H26.4927V20.7841C26.4927 18.9146 25.8408 17.6402 24.2098 17.6402C22.9637 17.6402 22.2229 18.5002 21.9268 19.3299C21.8076 19.627 21.7489 20.0414 21.7489 20.4577V28.8212H17.2416V18.9449H17.2398Z" fill="#111111"/>
</svg>
