<svg width="37" height="34" viewBox="0 0 37 34" fill="none" xmlns="http://www.w3.org/2000/svg">
<path d="M18.5001 0C14.3202 0 10.9319 3.42502 10.9319 7.64998C10.9319 11.875 14.3202 15.3 18.5001 15.3C22.6799 15.3 26.0683 11.875 26.0683 7.64998C26.0683 3.42502 22.6799 0 18.5001 0Z" fill="#C4C4C4"/>
<path d="M17.9646 18.6988C16.8778 18.6962 15.7887 18.6937 14.7047 18.7684C13.6809 18.839 12.7756 18.9879 11.9184 19.3468C9.85795 20.2095 8.22087 21.8642 7.36744 23.9469C7.01236 24.8134 6.86507 25.7285 6.79521 26.7634C6.72727 27.7698 6.72728 29.0064 6.72729 30.5393V32.2997C6.72729 33.2386 7.48027 33.9997 8.40912 33.9997H28.591C29.5198 33.9997 30.2728 33.2386 30.2728 32.2997V30.5393C30.2728 29.0064 30.2728 27.7698 30.2049 26.7634C30.135 25.7285 29.9878 24.8134 29.6327 23.9469C28.7793 21.8642 27.1422 20.2095 25.0817 19.3468C24.2245 18.9879 23.3192 18.839 22.2954 18.7684C21.2998 18.6997 20.0764 18.6998 18.5599 18.6998C18.3616 18.6998 18.163 18.6993 17.9646 18.6988Z" fill="#C4C4C4"/>
<path d="M9.78853 1.79382C10.3199 2.56387 10.1331 3.62356 9.37128 4.16069C8.27789 4.93159 7.56821 6.20705 7.56821 7.64989C7.56821 9.19383 8.3817 10.5474 9.6071 11.2938C10.4027 11.7784 10.659 12.8231 10.1796 13.6273C9.70022 14.4314 8.66666 14.6905 7.87108 14.206C5.67767 12.87 4.20456 10.4346 4.20456 7.64989C4.20456 5.04877 5.49036 2.75157 7.44695 1.37206C8.20878 0.834932 9.25714 1.02376 9.78853 1.79382Z" fill="#C4C4C4"/>
<path d="M27.2115 1.79382C27.7429 1.02376 28.7913 0.834932 29.5531 1.37206C31.5097 2.75157 32.7955 5.04877 32.7955 7.64989C32.7955 10.2509 31.5097 12.5482 29.5531 13.9277C28.7912 14.4648 27.7429 14.276 27.2115 13.5059C26.6801 12.7358 26.867 11.6762 27.6288 11.139C28.7221 10.3682 29.4318 9.09266 29.4318 7.64989C29.4318 6.20705 28.7222 4.93159 27.6288 4.16069C26.8669 3.62356 26.6801 2.56387 27.2115 1.79382Z" fill="#C4C4C4"/>
<path d="M32.4085 19.6264C31.5809 19.2002 30.5682 19.5328 30.1465 20.3694C29.7248 21.2059 30.0538 22.2296 30.8815 22.6559C31.8308 23.1448 32.6027 23.9251 33.0865 24.8847C33.3121 25.3324 33.4671 25.9235 33.5503 26.9522C33.635 28.0009 33.6364 29.3478 33.6364 31.28V32.3C33.6364 33.2389 34.3893 34 35.3182 34C36.247 34 37 33.2389 37 32.3V31.2073C37 29.3649 37 27.8788 36.9028 26.6754C36.8026 25.4364 36.591 24.348 36.0835 23.3411C35.2773 21.7418 33.9908 20.4414 32.4085 19.6264Z" fill="#C4C4C4"/>
<path d="M6.8535 20.3694C7.27519 21.2059 6.94613 22.2296 6.11853 22.6559C5.16918 23.1448 4.39731 23.925 3.91358 24.8847C3.6879 25.3324 3.53287 25.9235 3.44972 26.9522C3.36496 28.0009 3.36365 29.3478 3.36365 31.28V32.3C3.36365 33.2389 2.61067 34 1.68182 34C0.752979 34 4.0647e-07 33.2389 4.0647e-07 32.3V31.2072C-1.55308e-05 29.3648 -2.83817e-05 27.8788 0.0972412 26.6754C0.197393 25.4363 0.408988 24.348 0.916538 23.3411C1.72273 21.7418 3.00916 20.4414 4.59144 19.6264C5.41904 19.2002 6.4318 19.5328 6.8535 20.3694Z" fill="#C4C4C4"/>
</svg>
