<svg width="40" height="40" viewBox="0 0 40 40" fill="none" xmlns="http://www.w3.org/2000/svg">
<circle cx="20" cy="20.0001" r="20" fill="white"/>
<path fill-rule="evenodd" clip-rule="evenodd" d="M31.3005 12.3782C31.6996 12.7773 31.9872 13.274 32.1346 13.8188C32.9835 17.2358 32.7873 22.6325 32.1511 26.1814C32.0037 26.7263 31.7161 27.223 31.317 27.6221C30.9179 28.0212 30.4212 28.3087 29.8764 28.4562C27.8819 29.0001 19.8544 29.0001 19.8544 29.0001C19.8544 29.0001 11.8269 29.0001 9.8324 28.4562C9.28759 28.3087 8.79089 28.0212 8.39179 27.6221C7.99269 27.223 7.70511 26.7263 7.55768 26.1814C6.70383 22.7792 6.9379 17.3792 7.5412 13.8353C7.68862 13.2905 7.97621 12.7938 8.37531 12.3947C8.77441 11.9956 9.2711 11.708 9.81592 11.5606C11.8104 11.0166 19.8379 11.0001 19.8379 11.0001C19.8379 11.0001 27.8654 11.0001 29.8599 11.5441C30.4047 11.6915 30.9014 11.9791 31.3005 12.3782ZM23.9423 20.0001L17.283 23.8573V16.143L23.9423 20.0001Z" fill="#111111"/>
</svg>
